<?xml version="1.0" standalone="no"?><!DOCTYPE svg PUBLIC "-//W3C//DTD SVG 1.1//EN" "http://www.w3.org/Graphics/SVG/1.1/DTD/svg11.dtd"><svg t="1736583954292" class="icon" viewBox="0 0 1024 1024" version="1.1" xmlns="http://www.w3.org/2000/svg" p-id="10345" xmlns:xlink="http://www.w3.org/1999/xlink" width="200" height="200"><path d="M640 796.33l-70.997-70.997H326.656L256 796.032v14.635h384V796.33z m84.95-35.583h0.383V896H170.667V760.747h0.085l-0.085-0.086L291.328 640l0.085 0.085V640h313.174v0.256l120.448 120.405-0.086 0.086zM768 768h32.427H768l0.043-21.333L661.376 640H476.373h256.043l0.17 0.128 0.129-0.128 120.704 120.704-0.256 0.213V896H533.248h234.581L768 768zM533.29 591.147A149.419 149.419 0 0 0 639.958 448v-85.333A149.419 149.419 0 0 0 533.291 219.52a149.29 149.29 0 0 1 191.914 143.104V448a149.29 149.29 0 0 1-191.914 143.104zM448 213.333a149.333 149.333 0 0 1 149.333 149.334V448a149.333 149.333 0 1 1-298.666 0v-85.333A149.333 149.333 0 0 1 448 213.333z m0 85.334a64 64 0 0 0-64 64V448a64 64 0 0 0 128 0v-85.333a64 64 0 0 0-64-64z" fill="#1296db" p-id="10346"></path></svg>